<svg id="Capa_1" data-name="Capa 1" xmlns="http://www.w3.org/2000/svg" viewBox="0 0 463.8 463.71"><title>1</title><path d="M249.78,479.54c-5.31-.51-10.63-1-15.93-1.55-39.66-4.41-75.9-18-108.19-41.45-49.75-36.08-81.88-84.14-93-144.7C18.85,216.64,37.31,149.49,88.32,92.15c32.76-36.82,73.62-61,121.95-70.83C289,5.38,359,24,418.45,78.48c36.36,33.28,59.07,74.73,69,123a229.76,229.76,0,0,1,2.52,77c-5.7,42.67-21.89,80.93-49,114.33-36,44.28-82,72.08-138.17,82.77-9.52,1.81-19.28,2.35-28.93,3.48-1.05.12-2.09,0.32-3.14,0.48h-20.9ZM210.12,316.18a0.59,0.59,0,0,0,0,.34q7.33,18.21,14.66,36.42c0.6,1.49,1.48,1.43,2.74,1,8.1-2.72,16.26-5.25,24.3-8.13,7.61-2.73,15.09-5.81,22.74-8.77L257,299.27Zm94.57-40.54L259.88,298l17.71,38.07,46.64-23.33ZM327,311.2l42.15-27.59-21.24-36-40.51,26.46Zm16,39.53-17.42-35.29-46.68,23.32,17.42,35.34ZM208.74,313.52l47.07-17-17.18-39.09L195.31,273ZM276,340L226.64,357.8c5.59,11.09,11.22,22.19,16.79,33.33,0.85,1.7,2,1.05,3.13.65q20.26-7.17,40.51-14.38c2.05-.73,4-1.69,6.08-2.55Zm27.28-67-20.82-37.29-41,20.51,17.24,39.08Zm-96.46,44.16-47,10.28L173.35,366a361.68,361.68,0,0,0,48.91-10.62Zm139.48-72.08-24.11-35.13-37.09,24.23L306,271.45Zm41.56,76.5-17.33-35.3-42.23,27.57,17.38,35.32Zm-182.07-7.2-13.36-40.5-43.12,9.41L159,324.6Zm-30.52,54.83a0.68,0.68,0,0,0,0,.46c5.45,11,10.89,22,16.46,33a2.94,2.94,0,0,0,2.56.9c14.82-3.1,29.61-6.31,44.41-9.51a14.87,14.87,0,0,0,2-.72c-5.56-11.48-11-22.71-16.5-33.88a2.6,2.6,0,0,0-2.28-.8c-3.13.7-6.17,1.74-9.3,2.44C200.21,363.84,187.76,366.5,175.25,369.21ZM384.68,216.6l-34.35,29.18,21.28,36,35.74-30.44Zm-60.09-8.46,24.15,35.11,34.2-29.12-26.87-32.74Zm-141,21.18,10.88,40.88,43-15.52-16.2-38.92ZM281,233.09l-21.38-36.32-35.67,17.82,16.31,38.89Zm109.11,86.06a11,11,0,0,0,1.18-.76q16.5-14,33-28c1.26-1.06,1-2,.39-3.25q-7.75-15.83-15.45-31.67a5.44,5.44,0,0,0-.8-1.07l-35.37,30ZM320.43,207.5l-26.06-33.28-32.22,21.07,21.45,36.28ZM143.3,238.28l5.39,41.6a317.58,317.58,0,0,0,42.72-9.36l-10.64-40.37ZM357.64,383.38l-13.48-30-46.57,23.26L313,405.71Zm-187.44-17-13.44-38.58-40.42,2.22a267,267,0,0,0,11.45,37.34,2.61,2.61,0,0,0,2,1.23A230.69,230.69,0,0,0,170.2,366.42Zm124.52,11.5L246,395.48a4,4,0,0,0,.36.95c5.22,8.51,10.49,17,15.67,25.55,0.9,1.49,1.89,1.22,3.14.78,10.69-3.71,21.41-7.34,32.07-11.12,4.25-1.51,8.38-3.34,12.65-5.06ZM109.47,285.68a5.28,5.28,0,0,0-.06,1.28c1.92,12.69,3.89,25.37,5.78,38.06,0.25,1.68,1.3,1.68,2.5,1.63,9.71-.38,19.42-0.73,29.12-1.2,3.05-.15,6.09-0.68,9-1l-9.41-40.78Zm299.78-37a233.18,233.18,0,0,0,26.09-30.39,3.33,3.33,0,0,0-.27-3q-7.91-11.75-16.05-23.34c-1.92-2.74-4.14-5.27-6.07-7.71l-26.11,30.21ZM296.7,172.46l26.13,33.24,30.93-26.35-29.64-30.22Zm88,39.1A228.92,228.92,0,0,0,410.89,181l-28.55-29.75-24.18,28ZM346.88,351.81l13.21,29.44a7.22,7.22,0,0,0,1.11-.46q18.82-12.28,37.64-24.55c1.42-.92,1.23-1.94.76-3.17q-5.14-13.63-10.29-27.26a7,7,0,0,0-.71-1.24ZM129.83,371.35a5.59,5.59,0,0,0,0,1.26c5.43,10.91,10.83,21.84,16.38,32.69a3.75,3.75,0,0,0,2.81,1.35c3.92,0.15,7.86.25,11.77,0,9.31-.52,18.62-1.24,28.14-1.89a11.73,11.73,0,0,0-.43-1.54c-5.36-10.85-10.75-21.69-16.06-32.57-0.67-1.37-1.44-1.35-2.74-1.22-7.27.71-14.55,1.48-21.84,1.84C141.92,371.59,135.95,371.35,129.83,371.35Zm63.94,35.88c5.9,8.24,11.8,16.38,17.56,24.61a4.63,4.63,0,0,0,5.4,2.07c8.11-1.66,16.27-3,24.36-4.8,6.24-1.35,12.39-3.1,18.64-4.68L242.59,396.5ZM410.89,251.48l17.19,35a239.82,239.82,0,0,0,26.06-30.42,3.52,3.52,0,0,0,0-2.89c-3.07-7-6.15-14-9.45-20.92-2-4.13-4.36-8.06-6.63-12.2-4.6,5.64-8.81,11-13.29,16.22S415.41,246.55,410.89,251.48ZM108.51,240.41a1.52,1.52,0,0,0-.17.48c0.17,13.18.36,26.35,0.5,39.53,0,1.56.69,2,2.13,1.92,7.12-.25,14.25-0.31,21.37-0.69,4.5-.24,9-0.91,13.42-1.38l-5.3-41.67ZM326.6,146.56l29.34,30a215.45,215.45,0,0,0,23.74-27.79l-32.66-26ZM205.35,175.51l-30.48,11,8,40L220.1,213Zm17.46,36.35,35.25-17.67L236.82,160l-28.89,14.42ZM427,292.4l-35.48,30L403,353a17.51,17.51,0,0,0,1.58-1.07c9.8-8.31,19.55-16.67,29.41-24.9,2.28-1.9,2.9-3.79,1.86-6.64-1.24-3.42-1.87-7.06-3-10.54C431,304,428.94,298.22,427,292.4ZM180.09,227.23l-7.92-40-30.31,6.6L143,235.35Zm59.19-68.7,21.33,34.2,31.87-20.83-27.15-30.43Zm173.34,20a138.87,138.87,0,0,0,15.59-28.8,3.11,3.11,0,0,0-.83-2.63q-11.53-11-23.22-21.75c-1.67-1.55-3.55-2.87-5-4.06L384,148.88Zm-117.81-8.39,27-23L289.62,121l-22,18.78ZM438.38,214.1a143.65,143.65,0,0,0,16.14-29.92,3.94,3.94,0,0,0-.53-3.09c-3.81-5.6-7.63-11.21-11.71-16.62-3.47-4.6-7.29-8.93-10.75-13.13L415,181.41Zm-362,67a1.38,1.38,0,0,0-.13.47c1.08,12.61,2.12,25.22,3.34,37.81a3.52,3.52,0,0,0,2.22,2.37c5.64,1.31,11.31,2.53,17,3.45,4.45,0.71,9,.93,13.29,1.36l-6.07-41ZM80.73,325a0.78,0.78,0,0,0-.11.4c3.26,12,6.48,24,9.87,36A4,4,0,0,0,93,363.59c5.37,1.27,10.76,2.49,16.21,3.35,5.12,0.81,10.31,1.15,15.12,1.66-3.64-12.78-7.18-25.26-10.81-37.72a2.58,2.58,0,0,0-1.76-1.45c-2.64-.38-5.34-0.39-8-0.78C96.18,327.51,88.55,326.24,80.73,325ZM381.37,146.48A130.71,130.71,0,0,0,396.11,119a268.63,268.63,0,0,0-34.46-22.37l-13,23.89ZM112.89,195.55l-4.79,41.33a172.27,172.27,0,0,0,32.11-1.64l-1.09-41.09Zm213.9,234a3,3,0,0,0,.85,0Q347,419.9,366.4,410.27c1.56-.77,1.11-1.74.67-2.84q-3.92-9.94-7.84-19.88a13.1,13.1,0,0,0-.77-1.48l-44.13,22.06Zm-2.6,1.62-12.72-21.78-46.3,16.73a7.51,7.51,0,0,0,.68,1.21c4.68,5.85,9.41,11.66,14,17.54,1.07,1.36,2.14,1.48,3.67,1,7.41-2.54,14.89-4.89,22.27-7.53C311.93,436.11,317.92,433.61,324.2,431.17Zm-0.34-286,20.74-24.06L308.48,99.39,291.61,119ZM105.67,282.29v-42l-26.19-4A272.83,272.83,0,0,0,76.3,276,2.66,2.66,0,0,0,78,277.78,87.38,87.38,0,0,0,87.86,280C93.82,280.93,99.81,281.56,105.67,282.29Zm43.64,128a14.79,14.79,0,0,0,1.09,1.81c5.7,7.42,11.48,14.79,17.1,22.27a6.4,6.4,0,0,0,5.95,2.7c10.33-.52,20.66-1,31-1.53a46.26,46.26,0,0,0,4.8-.72c-6.05-9-11.93-17.84-17.92-26.59a3.15,3.15,0,0,0-2.45-.89C175.74,408.23,162.59,409.24,149.32,410.25ZM456.26,258.53c-0.57.54-.83,0.74-1,1-8.33,9.62-16.64,19.28-25,28.84a2.85,2.85,0,0,0-.52,3.31c3.08,9.47,6.06,19,9.07,28.46,0.14,0.44.34,0.87,0.58,1.46a12.22,12.22,0,0,0,1.21-1c7.65-8.92,15.35-17.81,22.85-26.85a6.13,6.13,0,0,0,1.06-4.59c-1.5-7-3.26-14-5.07-21C458.53,265,457.36,261.92,456.26,258.53Zm-54.68,99.68L361.39,384.4l9.38,24c11.89-8,23.51-15.75,35-23.64a3.44,3.44,0,0,0,.93-2.92C405.12,374,403.35,366.23,401.57,358.21Zm56.31-172-1.11.19a168.55,168.55,0,0,1-16.33,30,3.18,3.18,0,0,0,.27,2.58c2.55,4.9,5.35,9.68,7.79,14.64,2.94,6,5.61,12.08,8.5,18.36a22.38,22.38,0,0,0,1.61-2.18c4-7.14,7.88-14.38,12.05-21.43,2.91-4.93,3.13-9.54.45-14.73C466.47,204.59,462.27,195.36,457.89,186.22ZM143.53,406.93c-3.4-6.41-6.42-11.77-9.12-17.28s-5-11.21-7.67-16.77a3.41,3.41,0,0,0-2.35-1.49c-3.45-.44-6.95-0.48-10.38-1-7.11-1.06-14.19-2.32-21.39-3.51a16.46,16.46,0,0,0,.7,2.05c3.87,8,7.54,16.15,11.71,24,4.44,8.39,4.6,8.51,13.92,10.28C126.85,404.75,134.89,405.66,143.53,406.93Zm71.91,30.64c6.54,6.09,13,12.17,19.57,18.14a3.62,3.62,0,0,0,2.7.42c7.53-1.35,15.07-2.67,22.56-4.26,5.9-1.25,11.72-2.86,17.56-4.31-5.29-6.79-10.34-13.33-15.49-19.8a2.67,2.67,0,0,0-2.24-.66C245.46,430.49,230.84,433.94,215.44,437.57ZM310,97.13l36.17,21.66,13.12-24.08-38.63-17.2ZM191.5,138c-6.69,2.34-13,4.69-19.48,6.73-2,.64-2.39,1.57-2.15,3.41,1.06,8.22,2,16.46,3.07,24.69,0.44,3.4,1,6.78,1.64,10.69l29.7-10.77Zm23.34-11.55-20.9,10.45,13,34.78,28.34-14.21ZM89.61,192.16A282.45,282.45,0,0,0,80,233.34l25.35,3.93,4.91-41.91Zm82.06-7.82-4.82-37.66a2.61,2.61,0,0,0-.75-0.06c-6.44,1.36-12.9,2.69-19.31,4.2a3,3,0,0,0-1.58,2.2q-1.43,14.76-2.61,29.55c-0.2,2.51,0,5.05,0,8.16Zm238.1,197.25a6.66,6.66,0,0,0,1.15-.58c9.56-8.15,19.13-16.29,28.62-24.52a3.81,3.81,0,0,0,1-2.82q-0.76-9.59-1.81-19.15c-0.24-2.2-.82-4.37-1.19-6.27-11,9.08-21.81,18-32.52,26.93a3.49,3.49,0,0,0-.7,2.91c1.19,5.11,2.62,10.17,3.86,15.27C408.8,376,409.21,378.71,409.77,381.59ZM263.32,139.31L236,112.77l-18.79,12.31,20.52,31Zm24.05-20.22c-11.37-7.2-22-13.94-32.61-20.6a2.22,2.22,0,0,0-2,.08c-4.89,4.15-9.7,8.39-14.52,12.6l27.35,26.43Zm117.26-25.6c-0.17,1.29-.22,2.08-0.38,2.85-1.29,6.53-2.5,13.08-4,19.57-0.39,1.7-.26,2.6,1.13,3.79,7,5.95,13.87,12,20.71,18.14,2.6,2.32,5,4.88,7.73,7.57a75.59,75.59,0,0,0,4.74-25.5,4.14,4.14,0,0,0-1.36-2.66C427.55,112.11,421.86,107,416,102,412.48,99.08,408.65,96.49,404.64,93.49Zm-7.51,22.18c2.35-4.73,4.89-17.26,4.34-22.75a4.05,4.05,0,0,0-1.81-2.58c-5.93-3.62-11.88-7.23-18-10.58-4.87-2.68-10-5-14.8-7.39l-4.15,21.19ZM51.39,269.72c0,2.88-.06,5.55,0,8.22,0.18,6.41.36,12.83,0.64,19.23,0.53,11.79,1,12.53,11.5,17.74,4.17,2.06,8.55,3.67,13.16,5.63,0-1.11,0-1.55,0-2C75.71,308,74,297.48,74,286.92c0-6.1-2.22-8.31-7.52-10C61.35,275.27,56.69,272.32,51.39,269.72Zm6.4-43c0.22-.27,0-0.15,0,0A210.64,210.64,0,0,0,52,264.68a2.63,2.63,0,0,0,1,2,72.33,72.33,0,0,0,20.75,9.9c0-2.6-.17-4.91,0-7.19,0.92-10.82,2-21.62,2.88-32.44a2.74,2.74,0,0,0-1-2.25C69.78,231.95,63.84,229.39,57.79,226.73Zm84.54-75.09c-5.27.24-10.6,0.62-15.92,0.64-1.91,0-2.66.58-3.1,2.32-2.8,11-5.68,21.89-8.49,32.84-0.38,1.5-.48,3.06-0.81,5.21l25.14-1.52Zm162.91-53-0.16-1.25q-18.24-7.57-36.49-15.09a2,2,0,0,0-1.77.43c-3.69,4.31-7.3,8.68-10.85,13l33.22,21.51Zm151.14,80.6a78.42,78.42,0,0,0,4.76-25,9.43,9.43,0,0,0-1.61-5.14c-3.74-5.43-7.62-10.77-11.7-16-3.11-3.95-6.59-7.6-10.41-12a93,93,0,0,1-4.89,25.61c-0.24.73,0.38,2,1,2.72,4.3,5.35,8.81,10.54,13,16C449.89,169.83,452.94,174.43,456.38,179.27ZM321.44,75l38.18,16.86a66.29,66.29,0,0,0,3.8-18.46c0.12-1.77-.33-2.73-2.12-3.35-8.6-2.94-17.12-6.08-25.73-9-3.6-1.22-7.34-2-10.84-3ZM475.6,225.84c-5.59,9.52-11.28,19.17-16.89,28.87a3.5,3.5,0,0,0,0,2.45c1.29,4.17,2.83,8.27,4,12.47,1.64,6,3,12,4.59,18.31a12,12,0,0,0,1.19-1.51c4.41-8.14,8.93-16.23,13.08-24.5a11.85,11.85,0,0,0,.77-6.65c-0.85-5.81-2-11.59-3.32-17.31C478.05,233.68,476.64,229.48,475.6,225.84ZM54.09,313.67a11.66,11.66,0,0,0,.2,1.88c1.84,8,3.45,16,5.64,23.89,3.26,11.73,3.4,11.75,14.33,17.11,4.17,2,8.54,3.67,13,5.56a5.62,5.62,0,0,0,.14-1.13q-4.79-18.05-9.63-36.09a2.88,2.88,0,0,0-1.39-1.7C69,320,61.54,316.84,54.09,313.67ZM71.8,184.15A240,240,0,0,0,59,221.79a2.07,2.07,0,0,0,.68,1.75A59.64,59.64,0,0,0,77,231.82l9.73-40.6ZM172.6,439.4a31.48,31.48,0,0,0,2.36,2.55c6.26,5.14,12.49,10.33,18.88,15.31a8.26,8.26,0,0,0,4.64,1.46c5.52,0.12,11.05.12,16.56-.15s10.88-.92,16.26-1.39c-6.34-6.55-12.44-12.89-18.62-19.15a3.4,3.4,0,0,0-2.39-.52c-7.64.59-15.27,1.39-22.91,1.84C182.72,439.62,178,439.4,172.6,439.4ZM307.34,95.7l10.08-18.4a6.65,6.65,0,0,0-1.16-.8c-12.78-3.5-25.57-7-38.37-10.43a2.15,2.15,0,0,0-1.87.8c-2.29,4.22-4.44,8.5-6.51,12.51ZM165.26,437c-6.73-9.29-13-18-19.41-26.69a3.9,3.9,0,0,0-2.49-1.06c-5.92-.72-11.88-1.22-17.78-2-4.34-.61-8.62-1.6-12.93-2.42l-0.53.57c5.2,6.42,10.53,12.74,15.56,19.28a22.58,22.58,0,0,0,15.86,9.17C150.74,434.7,157.91,435.92,165.26,437ZM465.52,296a9.85,9.85,0,0,0-1,.83c-7.89,9.08-15.8,18.15-23.62,27.29a4,4,0,0,0-.66,2.84c0.77,6,1.71,12,2.51,18,0.32,2.4.43,4.83,0.65,7.36a3.34,3.34,0,0,0,.77-0.39q10.76-12.6,21.49-25.23a3.66,3.66,0,0,0,.76-1.94A130.27,130.27,0,0,0,465.52,296ZM368.94,412.34l-40.32,20.14,10,15c11.44-5.89,22.68-11.65,33.88-17.5a2.39,2.39,0,0,0,.94-2.07C372,422.65,370.46,417.47,368.94,412.34ZM90.19,189.42c6.78,0.9,12.93,1.68,19.07,2.57,1.69,0.25,2-.44,2.4-1.92,3.05-12.18,6.23-24.34,9.36-36.5a7.05,7.05,0,0,0,.13-1.1c-4.46-.78-8.74-1.61-13.06-2.2a2.87,2.87,0,0,0-2.29,1.34c-2.23,4.56-4.44,9.15-6.35,13.86C96.34,173.14,93.47,180.9,90.19,189.42ZM325.81,433.71l-42.49,15.37c4.84,4,9.4,7.81,14.1,11.46a4,4,0,0,0,3.16.27c6.87-2.2,13.71-4.47,20.51-6.89,4.83-1.72,9.58-3.71,14.55-5.65ZM408,387.07L371.56,410.8l5,16.58a1.9,1.9,0,0,0,.63-0.09q15-9.78,30-19.6a2.49,2.49,0,0,0,1.12-1.66C408.26,399.86,408.13,393.68,408,387.07ZM277.7,63l40.55,10.86a41.35,41.35,0,0,0,2.84-15.11,2.88,2.88,0,0,0-1.93-1.85c-5.22-1.13-10.45-2.27-15.73-3-7.82-1.14-15.69-2-23.51-2.92Zm186.88,93.64-0.88.31a93.89,93.89,0,0,1-5.07,24.73,4.14,4.14,0,0,0,.65,2.63c4.64,9.31,9.33,18.6,14,27.91,0.65,1.29,1.15,2.66,2,4.69,1-3.62,1.81-6.52,2.56-9.43,2.6-10.11,3-20-2.55-29.46-0.8-1.38-1.28-2.94-2-4.37C470.4,167.92,467.48,162.26,464.58,156.59ZM239.46,458.66l-0.35.84c5.73,3.16,11.39,6.46,17.23,9.41a9.94,9.94,0,0,0,5.6.79c5.55-.82,11.07-1.89,16.55-3.08s10.67-2.59,16.23-4c-4.64-4.14-9-7.91-13.19-11.86a3,3,0,0,0-3.26-.78c-7.69,2-15.38,3.92-23.11,5.66C250,456.86,244.69,457.68,239.46,458.66ZM64.78,355.32c4.34,8.52,8.73,16.74,12.74,25.14,3,6.22,7.71,10.31,13.77,13.11,3.71,1.72,7.45,3.37,11.19,5a23.51,23.51,0,0,0,2.76.8,10.72,10.72,0,0,0-.39-1.27q-7.65-15.7-15.33-31.38A3.54,3.54,0,0,0,88,365.11C80.47,361.89,72.95,358.75,64.78,355.32Zm7.69-174.24,15.07,7.3,16-39.23-10.8-5.22Zm107.65-76.78c-3.67,1.3-7,2.61-10.41,3.62-1.64.49-2,1.3-2,2.86,0.26,6.24.36,12.48,0.66,18.72,0.21,4.32.64,8.62,1,13.38l21.11-7.7ZM165,109.53c-3.56.71-7,1.29-10.34,2.14a3.38,3.38,0,0,0-1.92,2.06c-1,3.23-1.83,6.51-2.5,9.82-1.62,8-3.11,16-4.79,24.76l21.09-4.69ZM194.4,97.35c-3.48,1.71-6.7,3.43-10,4.89-1.65.72-1.75,1.52-1.2,3.08,2.07,5.88,4,11.82,6,17.72,1.23,3.6,2.52,7.18,3.9,11.08L213.21,124ZM440.55,360c-9.82,8.09-19.45,16-29,24a2.87,2.87,0,0,0-1.09,1.91c0.29,6.08.71,12.15,1.09,18.37a6.91,6.91,0,0,0,1.11-.64q11.77-10.07,23.51-20.18a4.31,4.31,0,0,0,1.34-1.92A89.4,89.4,0,0,0,440.55,360ZM49,263.51a1.43,1.43,0,0,0,.36-0.29q3-18.73,5.93-37.47a2.89,2.89,0,0,0-.53-2.13C51.2,219.76,47.59,216,44,212.2a193.66,193.66,0,0,0-7.1,35.27,2.49,2.49,0,0,0,.13,1.3A44.31,44.31,0,0,0,49,263.51Zm185-152.82c-9-7.22-17.56-14.06-26.14-20.85a1.79,1.79,0,0,0-1.64-.08c-3.21,2-6.35,4.19-9.54,6.31l18.95,26.59ZM56.1,220.83a3.15,3.15,0,0,0,.53-0.61Q63,201.81,69.3,183.39a2.19,2.19,0,0,0-.22-1.83c-2.81-3.13-5.72-6.18-8.69-9.35a213.82,213.82,0,0,0-14.65,34.47,3.24,3.24,0,0,0,.4,2.24A38.24,38.24,0,0,0,56.1,220.83Zm307.06-153a34.53,34.53,0,0,0-3.92-14.69,5.43,5.43,0,0,0-2.81-2.47c-5.85-1.87-11.74-3.68-17.69-5.2-5.75-1.47-11.6-2.57-17.41-3.83,0.94,4.17,1.93,7.93,2.59,11.74,0.28,1.63,1,2.09,2.46,2.5,6.53,1.79,13,3.64,19.49,5.73C351.61,63.5,357.25,65.71,363.16,67.85ZM209.37,87.48L236,109.13l15.53-13.23C240.13,90.54,229.6,85.58,219,80.67a2.24,2.24,0,0,0-1.93.05C214.46,82.92,211.9,85.24,209.37,87.48Zm192,0.5a43.15,43.15,0,0,0-4.77-17.13A6.78,6.78,0,0,0,394,68c-9.78-4.89-19.62-9.65-29.45-14.42a5.79,5.79,0,0,0-1.43-.39c1,5,1.89,10,3,14.87a3.89,3.89,0,0,0,2,2.07c5,2.54,10.13,4.81,15.06,7.45C389.23,80.85,395.09,84.37,401.41,88ZM142.7,148.61l7.33-35.9c-2.53,0-5,.11-7.48,0a2.9,2.9,0,0,0-3.21,2.1c-4.49,10.84-9,21.66-13.53,32.49a15,15,0,0,0-.49,2.42Zm77.36-70.66,33.22,16.17,11.15-12.88a4.65,4.65,0,0,0-1-.78c-11.95-3.23-23.89-6.47-35.86-9.63a2.5,2.5,0,0,0-2.08.6C223.61,73.54,221.85,75.78,220.06,77.95ZM36.3,254.42a3,3,0,0,0-.24,1c0,9,.21,18,0,27C36,289.08,39,294.24,43.06,299c2.1,2.45,4.44,4.7,6.45,6.81-0.12-12.52-.23-24.88-0.39-37.24a2.62,2.62,0,0,0-.65-1.64C44.43,262.71,40.34,258.55,36.3,254.42Zm34.13-75,20.45-37.19-6.1-7.06a224.1,224.1,0,0,0-21.93,32.56,2.45,2.45,0,0,0,.23,2.15C65.43,173.09,67.91,176.19,70.43,179.43ZM228.18,67.79c12.14,3.46,24.2,6.9,36.28,10.29a2.45,2.45,0,0,0,2.09-.32c2.42-4,4.7-8,7-12a5.09,5.09,0,0,0-1-.67Q252.85,63,233.18,61a2.24,2.24,0,0,0-1.82.67C230.12,63.79,229.07,66,228.18,67.79Zm49.13-29.24a74.58,74.58,0,0,1,1.85,7.82c0.22,1.8.88,2.32,2.64,2.47,6,0.53,12.08,1.11,18.08,2,7,1,14,2.33,21.79,3.65-1.18-4-2.26-7.6-3.33-11.22a3.21,3.21,0,0,0-3.15-2.36c-3-.29-6-0.82-9-1C296.63,39.38,287.12,39,277.31,38.55Zm206.64,227.2-0.68,0c-3.39,6.14-6.33,12.59-10.29,18.33-3.72,5.39-6.15,10.62-4.15,17.19a6.55,6.55,0,0,1,.11,1.86q0,8.6,0,17.19l1,0.15c1.34-2.16,2.72-4.29,4-6.48,5.65-9.59,10.56-19.38,10-31C483.74,277.28,483.95,271.51,483.95,265.75ZM434.3,113.53a50.31,50.31,0,0,0-.76-5.1c-1.44-5.88-2.49-12.15-7.35-16.27-7.74-6.57-15.87-12.66-23.86-18.94a4.55,4.55,0,0,0-1.17-.61c1,5.2,2,10.51,3.1,15.8a5.12,5.12,0,0,0,1.59,2.78C415.26,98.67,424.75,106.05,434.3,113.53Zm-296.86-.86a29.94,29.94,0,0,1-5.28-.9c-2-.71-3,0.11-3.88,1.64q-9.5,15.64-19,31.25c-0.44.72-.73,1.54-1.31,2.79,4.3,0.6,8.18,1,12,1.72,1.94,0.35,2.67-.37,3.28-2.07,2.09-5.77,4.21-11.54,6.55-17.22S134.83,118.5,137.44,112.67ZM189.56,459l0-.7c-6.75-6.05-13.48-12.13-20.29-18.12a5.1,5.1,0,0,0-2.69-.83c-4.7-.52-9.42-0.84-14.1-1.47-4.38-.59-8.72-1.48-13.08-2.24a2.43,2.43,0,0,0,1.12,1.53q10.66,7.85,21.33,15.67a7,7,0,0,0,2.63,1.26C172.81,455.76,181.18,457.36,189.56,459ZM277,51a239.81,239.81,0,0,0-43.21,1l-1,5.94,42,4.37ZM252.86,471.48l-0.07-.63c-5.8-3.75-11.59-7.52-17.44-11.2a4.22,4.22,0,0,0-2.29-.17c-9.6.61-19.19,1.26-28.79,1.88-0.93.06-1.87,0-2.8,0a3.78,3.78,0,0,0,1.8,1.76q9.63,4.27,19.29,8.45a6.42,6.42,0,0,0,2.58.57C234.38,472,243.62,471.71,252.86,471.48ZM441.5,378.83c6.07-7.45,11.82-14.35,17.39-21.39,2.72-3.44,7.08-21.64,6.51-25.16-7,7.68-14.15,15.59-21.29,23.54a3.88,3.88,0,0,0-.85,2.12C442.67,364.59,442.14,371.24,441.5,378.83ZM104.89,146.41l21.91-36-5-2.58A261.08,261.08,0,0,0,95,141.62ZM340.22,449.34c1.61,1.82,3.25,3.57,4.76,5.42,1.16,1.42,2.29,1.58,3.93.75,6.61-3.32,13.34-6.39,19.9-9.8,7.84-4.07,7.78-4.18,5.82-12.81a2.74,2.74,0,0,0-.3-0.61ZM127.35,428.93c-6.1-8.09-12.39-16.48-18.76-24.8a6.17,6.17,0,0,0-2.45-1.42q-8.77-3.87-17.58-7.67c-0.48-.21-1-0.36-2.16-0.8C98,409.29,109.11,423.7,127.35,428.93ZM38.06,297.82c0.39-.15.13-0.11,0.12,0a3.32,3.32,0,0,0,0,1.06c2,11,4.36,22,9,32.33,2.61,5.85,6.76,10.68,11.77,15a3.36,3.36,0,0,0,.13-0.84q-4-17-8-34A3.93,3.93,0,0,0,50,309.6C46.08,305.71,42.15,301.85,38.06,297.82Zm444.52-99.66c-1.82,7.09-3.65,14-5.35,21a7.48,7.48,0,0,0,.1,3.57c1.28,4.72,2.75,9.39,4.06,14.1,0.71,2.57,1.28,5.18,1.83,7.8s0.94,5,1.41,7.57C491.44,233.77,487.34,215.94,482.58,198.15ZM60.29,165.68a9.49,9.49,0,0,0,1.36-1q10.63-15.55,21.23-31.12a2.73,2.73,0,0,0,.51-1.87c-0.59-2.58-1.34-5.12-2.07-7.8a4.78,4.78,0,0,0-.8.65Q70.08,137.72,59.69,151a3.12,3.12,0,0,0-.74,1.94C59.31,157,59.79,161.07,60.29,165.68ZM43.63,203.77a10.19,10.19,0,0,0,.86-1.23Q51.61,186.29,58.68,170a3.34,3.34,0,0,0,.23-2c-0.93-3.58-2-7.12-3-10.81A15.91,15.91,0,0,0,54.68,159c-4,8.15-8,16.28-11.9,24.47C39.55,190.27,41.75,196.81,43.63,203.77ZM302,463.57c5.79,3,11.29,6.14,18.11,2.94,3.28-1.54,6.91-2.34,10.33-3.61,4.39-1.62,8.73-3.37,13.3-5.14-2.09-2.41-3.83-4.53-5.73-6.51a2.33,2.33,0,0,0-2-.43C324.73,455,313.51,459.24,302,463.57Zm-69.64-419L233.51,49l43.2-1.13a72,72,0,0,0-2.19-7.08,3.19,3.19,0,0,0-2.46-1.59A234.76,234.76,0,0,0,232.38,44.62ZM92.73,139.43l26.72-33.53L116,102.05c-8.31,8.54-16.57,16.77-24.54,25.28-5.31,5.67-5.07,6.62.87,11.84A1.44,1.44,0,0,0,92.73,139.43ZM270.37,29.17l0,0.89c1.46,1.67,2.82,3.44,4.42,5a5.13,5.13,0,0,0,3,1.43c6.76,0.25,13.54.18,20.3,0.48,5.63,0.25,11.25.84,17.51,1.33-4.37-4.9-7.68-10.19-14.93-9.51-1.4.13-2.84-.26-4.26-0.23C287.72,28.71,279,28.95,270.37,29.17ZM378.62,440.08c0.86-.44,1.59-0.74,2.24-1.16,6.56-4.28,13.07-8.66,19.68-12.86,5.6-3.55,5.75-9.43,7.23-15.08-10.15,6.43-19.93,12.58-29.64,18.84a2.8,2.8,0,0,0-.69,2.24C377.71,434.63,378.17,437.17,378.62,440.08ZM311.55,29.37c2.77,3.39,5,6.22,7.36,9a3.9,3.9,0,0,0,2.08.92c5.92,1.24,11.88,2.29,17.75,3.69,5.67,1.35,11.25,3.06,17.52,4.78-4.94-5.76-9.32-11.13-16.66-12.71-3-.64-5.84-1.6-8.8-2.17C324.57,31.62,318.31,30.57,311.55,29.37ZM460.78,146c-0.84-6.78-2.32-12.6-5.45-17.82a155.74,155.74,0,0,0-19.54-26.34c-0.43-.46-0.91-0.86-1.09-1,0.84,5.19,1.67,10.52,2.62,15.83a5.14,5.14,0,0,0,1.27,2.2c5.14,6,10.37,12,15.45,18.06C456.28,139.64,458.25,142.59,460.78,146ZM114.08,95.87a2.26,2.26,0,0,0-.62.16,208.59,208.59,0,0,0-28.31,23.65,2.43,2.43,0,0,0-.83,1.58c0.28,2.77.72,5.52,1.1,8.28l0.91,0.2a6,6,0,0,1,.71-1.14c8.5-8.65,16.87-17.43,25.62-25.82C115,100.52,115.61,98.73,114.08,95.87ZM271.8,36.52c-2.57-5-5.66-6.56-10.9-5.65-1.49.26-3,.39-4.49,0.73C247,33.78,237.56,36,227.88,38.28c2.94,4.26,2.92,4.19,7,3.4,4.72-.92,9.45-1.88,14.22-2.52C256.56,38.16,264.09,37.4,271.8,36.52Zm-7,435.53c10.8,4.38,33.37,3,43.12-2.35-6-4.53-12.7-6.28-20-2.69a4.64,4.64,0,0,1-1,.22ZM38.53,195c-4.08,16-9.37,31.31-4.22,47.25,2.64-10.89,5.35-22,8-33.15a4.24,4.24,0,0,0-.2-2C41,203.28,39.86,199.48,38.53,195ZM408.59,419.62l0.45,0.46c6.08-5.48,12.48-10.65,18.14-16.53,4-4.14,6.14-9.65,8.18-15.3a3.14,3.14,0,0,0-.82.21q-11.4,9.49-22.77,19a3.39,3.39,0,0,0-1.07,1.73C409.93,412.67,409.28,416.15,408.59,419.62ZM167.39,105.91l11.87-4.33-7.45-25.5-0.74-.31c-0.5.74-1.37,1.44-1.44,2.22C168.83,87,168.16,96,167.39,105.91ZM176.3,74c-1.77.36-2.34,1-1.83,2.65,1.86,6,3.57,12.09,5.37,18.13,0.55,1.84,1.17,3.66,1.85,5.8l11-5.53Zm-9.18,3.27c-2.84,1.29-12.48,25.72-12.55,31.65,3-.68,5.9-1.4,8.85-2a2.24,2.24,0,0,0,2.06-2.57c0-2.49,0-5,.2-7.48C166.11,90.4,166.62,83.94,167.12,77.24Zm27.79,16.53L205,87.16c-8.49-5.26-16.34-10.16-24.24-15-0.57-.35-1.53,0-2.87,0ZM391.4,62.86c-5.07-7.38-27.72-21.17-38.27-23.06,2.32,3,4.66,6.12,7,9.18a2.79,2.79,0,0,0,1.09.74C371.43,54.16,381.62,58.6,391.4,62.86ZM214.72,79.15c-8.29-4.38-30.49-10.6-32.45-9.23l24.67,15.76Zm46.35-51.49c-3.36-1.4-6.87-4-11.48-2.59s-9.12,2.38-13.59,3.85c-5,1.64-9.89,3.61-14.83,5.43l0,0.94C223,35.77,225,37,226.53,36.63,238.15,33.81,249.7,30.66,261.07,27.66Zm-2-5.15-0.1,1.36c3.75,0.72,6.41,3.87,10.82,3.55,9.57-.71,19.19-0.79,28.79-1.14a14.45,14.45,0,0,0,1.54-.22l0.12-.8c-4.4-1.32-8.78-3.62-13.21-3.75C277.68,21.24,268.35,22.11,259,22.51ZM162.61,78a174,174,0,0,0-20.78,32c2.77-.18,5-0.42,7.2-0.43,1.83,0,2.48-.88,3.07-2.55C155.3,98,158.67,89,162,79.95,162.2,79.31,162.4,78.67,162.61,78Zm22.64-11.11a4.26,4.26,0,0,0,.81.46Q200.71,72,215.38,76.5a2.43,2.43,0,0,0,1.94-.06c1.87-1.94,3.59-4,5.72-6.46C210.11,67.76,197.82,66.38,185.24,66.92Zm43.43-6.18a250.53,250.53,0,0,0-40.29,2.75c11.5,1.34,23.21,2.72,34.93,4a2.47,2.47,0,0,0,1.92-.91C226.38,64.92,227.31,63.11,228.67,60.74ZM60,146c0.41-.56.79-1.14,1.23-1.67,6-7.37,12-14.78,18.11-22.1a11.72,11.72,0,0,0,2.59-9.82C76,118.9,70.29,125.6,64.56,132.25,61.19,136.16,60.55,141,60,146Zm24.72-29.54c1.19-1,2-1.76,2.76-2.42,8.29-6.74,16.52-13.56,24.93-20.15a5.24,5.24,0,0,0,2.21-5.32,20.77,20.77,0,0,0-2,1.1C105,95,97.47,100.4,89.84,105.64,86.12,108.19,85.43,112,84.71,116.49Zm72.45-37L156.83,79l-25.28,29.09,0.48,0.79a55.39,55.39,0,0,0,5.7.81,2.74,2.74,0,0,0,2-1.18C145.61,98.84,151.38,89.14,157.16,79.45ZM480.43,307.75c-0.25.34-.54,0.67-0.76,1q-5.1,8.47-10.18,17a4.34,4.34,0,0,0-.61,1.45c-1.09,6.59-2.15,13.19-3.32,20.42A156.15,156.15,0,0,0,480.43,307.75ZM230.77,52.35a251.57,251.57,0,0,0-39.72,7.88L229.57,58ZM174.7,459.12l-0.14.64A149.49,149.49,0,0,0,213,471c-2.93-1.73-6.12-2.92-8.93-4.72-5.82-3.72-12-6.14-19-5.88a1.67,1.67,0,0,1-.26,0Zm71-435.93c-6.17-1.22-12-1.39-17.69,1.31-5,2.37-10,4.56-15.05,6.86a14.92,14.92,0,0,0-1.86,1.27c3.42,0.83,6.35,1.48,9.34-.33A28.45,28.45,0,0,1,225.89,30C232.42,27.74,239,25.51,245.74,23.19ZM117.9,80.31A105.51,105.51,0,0,0,94.27,94.47c-2.19,1.79-3.3,4.9-5.16,7.79,8.35-5.48,16-10.71,23.9-15.57A9.75,9.75,0,0,0,117.9,80.31Zm34.33,0.29-0.67-.67-28,25.33,2.28,1.42c2.07,1.26,3.64,1.41,5.23-1.06a80.74,80.74,0,0,1,6.9-8.83C142.69,91.34,147.48,86,152.23,80.6Zm-77.56,300c-2.13-4.1-4.37-8.14-6.35-12.31s-3.82-8.62-5.64-13c-1.35-3.22-6.17-8.58-9.81-10.53C59,357.66,66,369.69,74.67,380.59ZM193.86,55.93l0.21,0.6,36.33-7c-0.64-4.4-.67-4.42-4.94-3.34-1.21.31-2.43,0.59-3.62,1Q207.85,51.53,193.86,55.93Zm-44.72,23-0.34-.5-30.32,21.78,3.1,3.63ZM125,70.35c-10.6,3.64-20.06,7.54-25.71,17,5.79-3,11.53-6.43,17.58-9.09C120.53,76.67,122.44,73.88,125,70.35ZM225.24,22.77c-10.45-.57-18.95,3.49-26.86,9.76,5.06,0.64,7.23.23,11.06-1.94,1.39-.79,2.79-1.57,4.22-2.27C217.45,26.47,221.27,24.67,225.24,22.77ZM117.81,97.66l29.75-21.25a21.79,21.79,0,0,0-2.06.85c-8.6,4.83-17.15,9.75-25.82,14.46C116.92,93.22,116.77,95.1,117.81,97.66ZM227.46,42.85c-1.37-2.3-3-3.21-5.86-1.93-5.45,2.44-11.09,4.44-16.56,6.82-4.11,1.79-8.09,3.9-12.12,5.87l0.1,0.15ZM168.87,56.47l0.81,0.35a11.21,11.21,0,0,0,1.84-2.54c1.11-3.08,2-6.24,3-9.35,0.44-1.34,1-2.64,1.78-4.52-3.37,1.34-6.12,2.34-8.76,3.55a2.31,2.31,0,0,0-1.06,1.92C167.18,49.43,168.06,52.94,168.87,56.47Zm-14.71-6c3.45,2.68,6.65,5.22,9.92,7.64a2,2,0,0,0,1.85,0,2,2,0,0,0,.54-1.7c-0.83-3.52-1.78-7-2.78-10.85Zm19.27,4.16,1.11,0.61L188.9,36.92c-2.71.72-5.2,1.32-7.64,2.07a3.09,3.09,0,0,0-1.83,1.3C177.36,45,175.41,49.84,173.43,54.62Zm-11.17,6.11,0.21-1.09c-3.19-2.23-6.36-4.48-9.59-6.65a2.38,2.38,0,0,0-1.93-.42c-2.54,1.49-5,3.15-7.51,4.79,5.7,1.18,11,2.3,16.28,3.35A13.33,13.33,0,0,0,162.27,60.73Zm73.53,414.2c8.71,1.74,28.79,2.32,32.85,1-3.64-1.06-7.21-3-10.77-3C250.72,473.07,243.56,474.19,235.8,474.93ZM158.3,63.32l0.11-.83c-4.79-.76-9.62-1.33-14.36-2.32s-7,2.42-10.19,5Zm-32.5,10.59,29.28-7.85c-6.85.26-13.61,1.21-20.4,1.86C130.44,68.32,127.73,70.61,125.81,73.91Zm75-38.48c-5.71-.14-7.37.49-11,4.58-2.72,3.07-5.33,6.23-7.91,9.42-1.18,1.45-2.16,3.06-3.46,4.94ZM477.46,175.68l0.42-.27-13.94-32.9-1,.34c0.4,2.85.1,6.05,1.31,8.49C468.36,159.61,473,167.59,477.46,175.68ZM191.26,50.84l0.28,0.48,29.65-13.11c-2.4-1.65-4.75-2-7.37-.31-1.84,1.22-4,2-5.91,3.09C202.34,44.23,196.81,47.55,191.26,50.84ZM57,143.89c-4.15,5.49-13.34,26.72-13.21,30.47,2.75-5.21,5.29-10.61,8.38-15.67C55,154.07,57.32,149.42,57,143.89ZM185.08,51.07l0.58,0.6,26.23-15.9c-2.1-.41-4.64-1-6.09,0C198.73,40.64,192,45.93,185.08,51.07Zm269.8,317.31-0.66-.55c-3.85,4.19-7.43,8.68-11.62,12.48-3.92,3.55-4.14,8.48-6.4,12.61l0.78,0.47ZM114.59,71.59c6.83-3.34,15.48-3.3,19.94-10.95C126.12,61,120.31,66.19,114.59,71.59Zm87.62-45.27c-6.87,2.27-14.85,2.26-19.52,9.22C190.68,35.63,196.63,31.4,202.21,26.32ZM32.53,275.86h0.52c0.29-8,.79-16,0.78-24,0-3.16-1.14-6.31-1.75-9.47l-1.29.21ZM147.42,447.2l0.39-.67c-3.81-3.22-7.94-6.14-11.35-9.74-3.78-4-8.92-4.38-13.31-6.69l-0.49.84Zm339.31-169h0.57l2.06-28.53-0.81-.12c-1,3.35-2.77,6.67-2.87,10C485.52,265.74,486.33,272,486.73,278.17ZM300.38,22l-0.2.84c4,2.47,8.1,4.37,13,4.68,5.47,0.35,10.88,1.58,16.32,2.43l0.16-.68ZM117.14,89.37l0.62,0.42,27.55-15.46c-0.93.29-1.35,0.38-1.72,0.55-7.86,3.53-15.76,7-23.52,10.7C118.78,86.2,118.1,88.08,117.14,89.37ZM70.59,120.46c4.69-7.07,13.84-10.46,16.61-20.19A68.91,68.91,0,0,0,70.59,120.46Zm75.53-49.56-0.22-.54c-7.15,2.38-14.35,4.64-21.42,7.25-1.64.6-2.84,2.39-4.24,3.64l0.55,0.6Zm98.75-51.53-0.06.78c8.7,3.45,17-.53,25.57-0.82l0-.79ZM148.38,51.12c-3.36-1.39-12.82,3.11-15.74,7C139.2,59.25,143.11,54.19,148.38,51.12Zm32.94-18.51c-5.28,2.21-9.89,4-14.39,6.11-0.68.31-.86,1.71-1.27,2.6l0.71,0.55C171,38.68,178,39.64,181.31,32.62Zm-17.76,8.44-0.69-.6L148.11,48c1.39,0.54,2.53,1.43,3.13,1.15,3.87-1.76,7.65-3.72,11.37-5.78C163.17,43,163.25,41.84,163.55,41.05ZM409.88,75.63l0.48-.68L396,63.43C398.75,69.83,405.44,71.31,409.88,75.63Z" transform="translate(-28.23 -15.83)" fill="#FFA500" /></svg>